<?xml version="1.0" encoding="UTF-8"?>
<!DOCTYPE svg PUBLIC "-//W3C//DTD SVG 1.1//EN" "http://www.w3.org/Graphics/SVG/1.1/DTD/svg11.dtd">
<svg version="1.2" width="14.08mm" height="14.08mm" viewBox="9843 6843 1408 1408" preserveAspectRatio="xMidYMid" fill-rule="evenodd" stroke-width="28.222" stroke-linejoin="round" xmlns="http://www.w3.org/2000/svg" xmlns:ooo="http://xml.openoffice.org/svg/export" xmlns:xlink="http://www.w3.org/1999/xlink" xmlns:presentation="http://sun.com/xmlns/staroffice/presentation" xmlns:smil="http://www.w3.org/2001/SMIL20/" xmlns:anim="urn:oasis:names:tc:opendocument:xmlns:animation:1.0" xmlns:svg="urn:oasis:names:tc:opendocument:xmlns:svg-compatible:1.0" xml:space="preserve">
 <defs class="EmbeddedBulletChars">
  <g id="bullet-char-template-57356" transform="scale(0.00048828125,-0.00048828125)">
   <path d="M 580,1141 L 1163,571 580,0 -4,571 580,1141 Z"/>
  </g>
  <g id="bullet-char-template-57354" transform="scale(0.00048828125,-0.00048828125)">
   <path d="M 8,1128 L 1137,1128 1137,0 8,0 8,1128 Z"/>
  </g>
  <g id="bullet-char-template-10146" transform="scale(0.00048828125,-0.00048828125)">
   <path d="M 174,0 L 602,739 174,1481 1456,739 174,0 Z M 1358,739 L 309,1346 659,739 1358,739 Z"/>
  </g>
  <g id="bullet-char-template-10132" transform="scale(0.00048828125,-0.00048828125)">
   <path d="M 2015,739 L 1276,0 717,0 1260,543 174,543 174,936 1260,936 717,1481 1274,1481 2015,739 Z"/>
  </g>
  <g id="bullet-char-template-10007" transform="scale(0.00048828125,-0.00048828125)">
   <path d="M 0,-2 C -7,14 -16,27 -25,37 L 356,567 C 262,823 215,952 215,954 215,979 228,992 255,992 264,992 276,990 289,987 310,991 331,999 354,1012 L 381,999 492,748 772,1049 836,1024 860,1049 C 881,1039 901,1025 922,1006 886,937 835,863 770,784 769,783 710,716 594,584 L 774,223 C 774,196 753,168 711,139 L 727,119 C 717,90 699,76 672,76 641,76 570,178 457,381 L 164,-76 C 142,-110 111,-127 72,-127 30,-127 9,-110 8,-76 1,-67 -2,-52 -2,-32 -2,-23 -1,-13 0,-2 Z"/>
  </g>
  <g id="bullet-char-template-10004" transform="scale(0.00048828125,-0.00048828125)">
   <path d="M 285,-33 C 182,-33 111,30 74,156 52,228 41,333 41,471 41,549 55,616 82,672 116,743 169,778 240,778 293,778 328,747 346,684 L 369,508 C 377,444 397,411 428,410 L 1163,1116 C 1174,1127 1196,1133 1229,1133 1271,1133 1292,1118 1292,1087 L 1292,965 C 1292,929 1282,901 1262,881 L 442,47 C 390,-6 338,-33 285,-33 Z"/>
  </g>
  <g id="bullet-char-template-9679" transform="scale(0.00048828125,-0.00048828125)">
   <path d="M 813,0 C 632,0 489,54 383,161 276,268 223,411 223,592 223,773 276,916 383,1023 489,1130 632,1184 813,1184 992,1184 1136,1130 1245,1023 1353,916 1407,772 1407,592 1407,412 1353,268 1245,161 1136,54 992,0 813,0 Z"/>
  </g>
  <g id="bullet-char-template-8226" transform="scale(0.00048828125,-0.00048828125)">
   <path d="M 346,457 C 273,457 209,483 155,535 101,586 74,649 74,723 74,796 101,859 155,911 209,963 273,989 346,989 419,989 480,963 531,910 582,859 608,796 608,723 608,648 583,586 532,535 482,483 420,457 346,457 Z"/>
  </g>
  <g id="bullet-char-template-8211" transform="scale(0.00048828125,-0.00048828125)">
   <path d="M -4,459 L 1135,459 1135,606 -4,606 -4,459 Z"/>
  </g>
  <g id="bullet-char-template-61548" transform="scale(0.00048828125,-0.00048828125)">
   <path d="M 173,740 C 173,903 231,1043 346,1159 462,1274 601,1332 765,1332 928,1332 1067,1274 1183,1159 1299,1043 1357,903 1357,740 1357,577 1299,437 1183,322 1067,206 928,148 765,148 601,148 462,206 346,322 231,437 173,577 173,740 Z"/>
  </g>
 </defs>
 <g class="Page">
  <g class="com.sun.star.drawing.ClosedBezierShape">
   <g id="id3">
    <rect class="BoundingBox" stroke="none" fill="none" x="9843" y="6843" width="1408" height="1408"/>
    <path fill="rgb(83,179,11)" stroke="none" d="M 10547,6843 C 10935,6843 11250,7158 11250,7546 11250,7934 10935,8250 10547,8250 10159,8250 9843,7934 9843,7546 9843,7158 10159,6843 10547,6843 Z"/>
   </g>
  </g>
  <g class="Group">
   <g class="com.sun.star.drawing.PolyPolygonShape">
    <g id="id4">
     <rect class="BoundingBox" stroke="none" fill="none" x="10258" y="7217" width="577" height="659"/>
     <path fill="rgb(255,255,255)" stroke="none" d="M 10547,7218 L 10535,7218 10522,7220 10507,7222 10492,7225 10459,7232 10426,7241 10307,7276 10307,7276 10301,7279 10299,7280 10296,7282 10292,7284 10289,7287 10286,7289 10283,7292 10280,7295 10277,7298 10274,7301 10272,7305 10270,7307 10269,7310 10268,7313 10267,7316 10265,7322 10264,7328 10260,7362 10259,7395 10259,7426 10260,7457 10263,7486 10267,7515 10273,7542 10280,7568 10297,7617 10317,7662 10341,7702 10366,7738 10366,7738 10377,7753 10389,7766 10401,7780 10413,7793 10427,7805 10440,7817 10454,7828 10469,7839 10480,7847 10492,7854 10502,7860 10512,7865 10521,7869 10525,7870 10530,7871 10534,7873 10538,7873 10542,7874 10547,7874 10550,7874 10555,7873 10559,7873 10563,7871 10567,7870 10572,7869 10580,7865 10580,7865 10585,7863 10589,7860 10598,7855 10605,7851 10611,7848 10617,7843 10623,7839 10623,7839 10638,7828 10652,7817 10665,7805 10679,7793 10691,7780 10703,7766 10715,7753 10726,7738 10751,7702 10775,7662 10795,7617 10812,7568 10819,7542 10825,7515 10829,7486 10832,7457 10834,7426 10833,7395 10832,7362 10828,7328 10828,7328 10827,7322 10825,7316 10824,7313 10823,7310 10822,7307 10820,7305 10818,7301 10815,7298 10812,7295 10809,7292 10806,7289 10803,7287 10800,7284 10796,7282 10793,7280 10791,7279 10785,7276 10785,7276 10666,7241 10633,7232 10600,7225 10585,7222 10571,7220 10558,7218 10547,7218 Z M 10634,7429 L 10634,7429 10635,7428 10635,7428 10636,7428 10636,7427 10637,7426 10638,7426 10640,7425 10641,7424 10642,7424 10643,7423 10644,7423 10646,7423 10647,7423 10648,7423 10650,7423 10651,7423 10652,7423 10654,7423 10655,7424 10657,7424 10658,7425 10659,7426 10661,7426 10662,7427 10663,7428 10663,7429 10664,7429 10665,7430 10666,7431 10666,7433 10667,7434 10668,7435 10668,7437 10669,7438 10669,7440 10669,7441 10669,7442 10669,7444 10669,7445 10669,7446 10669,7448 10669,7449 10668,7450 10668,7451 10667,7452 10666,7454 10666,7455 10665,7456 10664,7456 10664,7457 10664,7457 10663,7458 10540,7581 10540,7581 10539,7582 10539,7582 10538,7583 10538,7583 10537,7584 10536,7584 10534,7585 10533,7586 10532,7586 10531,7587 10530,7587 10528,7587 10527,7587 10526,7587 10524,7587 10523,7587 10521,7587 10520,7587 10519,7586 10518,7586 10517,7585 10516,7584 10513,7583 10512,7582 10511,7581 10450,7520 10450,7520 10449,7519 10449,7519 10448,7519 10448,7518 10447,7518 10447,7517 10446,7517 10446,7516 10446,7516 10445,7515 10445,7514 10445,7513 10444,7512 10444,7510 10444,7509 10444,7507 10444,7506 10444,7505 10444,7503 10444,7502 10444,7501 10444,7499 10444,7498 10445,7497 10445,7496 10446,7495 10446,7494 10446,7493 10447,7493 10447,7492 10448,7491 10449,7491 10450,7490 10451,7489 10452,7488 10454,7488 10456,7486 10457,7486 10458,7486 10460,7485 10461,7485 10462,7485 10464,7485 10465,7485 10466,7485 10468,7485 10469,7485 10470,7486 10472,7486 10475,7488 10475,7488 10475,7488 10475,7488 10476,7488 10477,7489 10478,7490 10478,7490 10479,7491 10526,7538 10634,7429 Z"/>
    </g>
   </g>
  </g>
 </g>
</svg>